<mxfile host="app.diagrams.net" modified="2025-01-27T12:00:00.000Z" agent="5.0" version="22.1.0" etag="draw-id" type="device">
  <diagram name="Data Flow and Analytics Pipeline" id="data-flow-analytics">
    <mxGraphModel dx="1434" dy="844" grid="1" gridSize="10" guides="1" tooltips="1" connect="1" arrows="1" fold="1" page="1" pageScale="1" pageWidth="1400" pageHeight="850" math="0" shadow="0">
      <root>
        <mxCell id="0" />
        <mxCell id="1" parent="0" />
        
        <mxCell id="title" value="Fraud Switch - Data Flow and Analytics Pipeline" style="text;html=1;strokeColor=none;fillColor=none;align=center;verticalAlign=middle;whiteSpace=wrap;rounded=0;fontSize=24;fontStyle=1" vertex="1" parent="1">
          <mxGeometry x="400" y="20" width="600" height="40" as="geometry" />
        </mxCell>
        
        <mxCell id="legend-box" value="" style="rounded=1;whiteSpace=wrap;html=1;fillColor=#f5f5f5;strokeColor=#666666;dashed=1;" vertex="1" parent="1">
          <mxGeometry x="40" y="80" width="280" height="120" as="geometry" />
        </mxCell>
        <mxCell id="legend-title" value="Legend" style="text;html=1;strokeColor=none;fillColor=none;align=left;verticalAlign=middle;whiteSpace=wrap;rounded=0;fontSize=14;fontStyle=1" vertex="1" parent="1">
          <mxGeometry x="50" y="90" width="100" height="20" as="geometry" />
        </mxCell>
        <mxCell id="legend-sync" value="Synchronous Flow" style="text;html=1;strokeColor=none;fillColor=none;align=left;verticalAlign=middle;whiteSpace=wrap;rounded=0;fontSize=11;" vertex="1" parent="1">
          <mxGeometry x="90" y="120" width="120" height="20" as="geometry" />
        </mxCell>
        <mxCell id="legend-async" value="Asynchronous Flow" style="text;html=1;strokeColor=none;fillColor=none;align=left;verticalAlign=middle;whiteSpace=wrap;rounded=0;fontSize=11;" vertex="1" parent="1">
          <mxGeometry x="90" y="145" width="130" height="20" as="geometry" />
        </mxCell>
        <mxCell id="legend-data" value="Data at Rest" style="text;html=1;strokeColor=none;fillColor=none;align=left;verticalAlign=middle;whiteSpace=wrap;rounded=0;fontSize=11;" vertex="1" parent="1">
          <mxGeometry x="90" y="170" width="100" height="20" as="geometry" />
        </mxCell>
        <mxCell id="legend-sync-line" value="" style="endArrow=classic;html=1;strokeWidth=3;strokeColor=#0066CC;" edge="1" parent="1">
          <mxGeometry width="50" height="50" relative="1" as="geometry">
            <mxPoint x="50" y="130" as="sourcePoint" />
            <mxPoint x="80" y="130" as="targetPoint" />
          </mxGeometry>
        </mxCell>
        <mxCell id="legend-async-line" value="" style="endArrow=classic;html=1;strokeWidth=2;strokeColor=#009900;dashed=1;" edge="1" parent="1">
          <mxGeometry width="50" height="50" relative="1" as="geometry">
            <mxPoint x="50" y="155" as="sourcePoint" />
            <mxPoint x="80" y="155" as="targetPoint" />
          </mxGeometry>
        </mxCell>
        <mxCell id="legend-data-box" value="" style="shape=cylinder3;whiteSpace=wrap;html=1;boundedLbl=1;backgroundOutline=1;size=8;fillColor=#dae8fc;strokeColor=#6c8ebf;" vertex="1" parent="1">
          <mxGeometry x="50" y="165" width="30" height="30" as="geometry" />
        </mxCell>

        <mxCell id="processing-layer-label" value="Transaction Processing" style="text;html=1;strokeColor=none;fillColor=none;align=left;verticalAlign=middle;whiteSpace=wrap;rounded=0;fontSize=14;fontStyle=1;fontColor=#0066CC;" vertex="1" parent="1">
          <mxGeometry x="40" y="230" width="200" height="30" as="geometry" />
        </mxCell>
        
        <mxCell id="fraud-router" value="Fraud Router&#xa;(60 pods)&#xa;&#xa;Transaction&#xa;Orchestration" style="rounded=1;whiteSpace=wrap;html=1;fillColor=#dae8fc;strokeColor=#6c8ebf;verticalAlign=top;fontSize=11;fontStyle=1" vertex="1" parent="1">
          <mxGeometry x="80" y="270" width="140" height="100" as="geometry" />
        </mxCell>
        
        <mxCell id="fraudsight-adapter" value="FraudSight&#xa;Adapter&#xa;(30 pods)&#xa;&#xa;Ravelin" style="rounded=1;whiteSpace=wrap;html=1;fillColor=#dae8fc;strokeColor=#6c8ebf;verticalAlign=top;fontSize=11;fontStyle=1" vertex="1" parent="1">
          <mxGeometry x="80" y="400" width="140" height="100" as="geometry" />
        </mxCell>
        
        <mxCell id="gp-adapter" value="GuaranteedPayment&#xa;Adapter&#xa;(30 pods)&#xa;&#xa;Signifyd" style="rounded=1;whiteSpace=wrap;html=1;fillColor=#dae8fc;strokeColor=#6c8ebf;verticalAlign=top;fontSize=11;fontStyle=1" vertex="1" parent="1">
          <mxGeometry x="80" y="530" width="140" height="100" as="geometry" />
        </mxCell>
        
        <mxCell id="router-to-fs" value="Sync Call" style="endArrow=classic;html=1;exitX=0.5;exitY=1;exitDx=0;exitDy=0;entryX=0.5;entryY=0;entryDx=0;entryDy=0;strokeWidth=3;strokeColor=#0066CC;fontSize=10;" edge="1" parent="1" source="fraud-router" target="fraudsight-adapter">
          <mxGeometry width="50" height="50" relative="1" as="geometry">
            <mxPoint x="300" y="400" as="sourcePoint" />
            <mxPoint x="350" y="350" as="targetPoint" />
          </mxGeometry>
        </mxCell>
        <mxCell id="router-to-gp" value="Sync Call" style="endArrow=classic;html=1;exitX=0.5;exitY=1;exitDx=0;exitDy=0;entryX=0.5;entryY=0;entryDx=0;entryDy=0;strokeWidth=3;strokeColor=#0066CC;fontSize=10;edgeStyle=orthogonalEdgeStyle;" edge="1" parent="1" source="fraud-router" target="gp-adapter">
          <mxGeometry width="50" height="50" relative="1" as="geometry">
            <mxPoint x="300" y="400" as="sourcePoint" />
            <mxPoint x="350" y="350" as="targetPoint" />
            <Array as="points">
              <mxPoint x="150" y="390" />
              <mxPoint x="40" y="390" />
              <mxPoint x="40" y="580" />
            </Array>
          </mxGeometry>
        </mxCell>

        <mxCell id="kafka-layer-label" value="Event Streaming (MSK)" style="text;html=1;strokeColor=none;fillColor=none;align=left;verticalAlign=middle;whiteSpace=wrap;rounded=0;fontSize=14;fontStyle=1;fontColor=#009900;" vertex="1" parent="1">
          <mxGeometry x="360" y="230" width="200" height="30" as="geometry" />
        </mxCell>
        
        <mxCell id="kafka-transactions" value="fs.transactions&#xa;&#xa;All successful&#xa;fraud evaluations&#xa;&#xa;25 partitions&#xa;7-day retention" style="rounded=1;whiteSpace=wrap;html=1;fillColor=#d5e8d4;strokeColor=#82b366;verticalAlign=top;fontSize=11;fontStyle=1" vertex="1" parent="1">
          <mxGeometry x="380" y="290" width="160" height="120" as="geometry" />
        </mxCell>
        
        <mxCell id="kafka-declines" value="fs.declines&#xa;&#xa;Declined/Flagged&#xa;transactions&#xa;&#xa;25 partitions&#xa;7-day retention" style="rounded=1;whiteSpace=wrap;html=1;fillColor=#d5e8d4;strokeColor=#82b366;verticalAlign=top;fontSize=11;fontStyle=1" vertex="1" parent="1">
          <mxGeometry x="380" y="440" width="160" height="120" as="geometry" />
        </mxCell>
        
        <mxCell id="kafka-async" value="async.events&#xa;&#xa;Async enrichment&#xa;requests&#xa;&#xa;10 partitions&#xa;7-day retention" style="rounded=1;whiteSpace=wrap;html=1;fillColor=#d5e8d4;strokeColor=#82b366;verticalAlign=top;fontSize=11;fontStyle=1" vertex="1" parent="1">
          <mxGeometry x="380" y="590" width="160" height="120" as="geometry" />
        </mxCell>
        
        <mxCell id="fs-to-kafka-txn" value="Publish" style="endArrow=classic;html=1;exitX=1;exitY=0.25;exitDx=0;exitDy=0;entryX=0;entryY=0.5;entryDx=0;entryDy=0;strokeWidth=2;strokeColor=#009900;dashed=1;fontSize=10;" edge="1" parent="1" source="fraudsight-adapter" target="kafka-transactions">
          <mxGeometry x="-0.2" width="50" height="50" relative="1" as="geometry">
            <mxPoint x="300" y="450" as="sourcePoint" />
            <mxPoint x="350" y="400" as="targetPoint" />
            <mxPoint as="offset" />
          </mxGeometry>
        </mxCell>
        <mxCell id="fs-to-kafka-decline" value="Publish" style="endArrow=classic;html=1;exitX=1;exitY=0.75;exitDx=0;exitDy=0;entryX=0;entryY=0.5;entryDx=0;entryDy=0;strokeWidth=2;strokeColor=#009900;dashed=1;fontSize=10;" edge="1" parent="1" source="fraudsight-adapter" target="kafka-declines">
          <mxGeometry x="-0.2" width="50" height="50" relative="1" as="geometry">
            <mxPoint x="300" y="500" as="sourcePoint" />
            <mxPoint x="350" y="450" as="targetPoint" />
            <mxPoint as="offset" />
          </mxGeometry>
        </mxCell>
        <mxCell id="gp-to-kafka-txn" value="Publish" style="endArrow=classic;html=1;exitX=1;exitY=0.25;exitDx=0;exitDy=0;entryX=0;entryY=0.75;entryDx=0;entryDy=0;strokeWidth=2;strokeColor=#009900;dashed=1;fontSize=10;edgeStyle=orthogonalEdgeStyle;" edge="1" parent="1" source="gp-adapter" target="kafka-transactions">
          <mxGeometry x="-0.2" width="50" height="50" relative="1" as="geometry">
            <mxPoint x="300" y="550" as="sourcePoint" />
            <mxPoint x="350" y="500" as="targetPoint" />
            <mxPoint as="offset" />
            <Array as="points">
              <mxPoint x="300" y="558" />
              <mxPoint x="300" y="380" />
            </Array>
          </mxGeometry>
        </mxCell>
        <mxCell id="gp-to-kafka-decline" value="Publish" style="endArrow=classic;html=1;exitX=1;exitY=0.5;exitDx=0;exitDy=0;entryX=0;entryY=0.75;entryDx=0;entryDy=0;strokeWidth=2;strokeColor=#009900;dashed=1;fontSize=10;edgeStyle=orthogonalEdgeStyle;" edge="1" parent="1" source="gp-adapter" target="kafka-declines">
          <mxGeometry x="-0.2" width="50" height="50" relative="1" as="geometry">
            <mxPoint x="300" y="600" as="sourcePoint" />
            <mxPoint x="350" y="550" as="targetPoint" />
            <mxPoint as="offset" />
            <Array as="points">
              <mxPoint x="300" y="580" />
              <mxPoint x="300" y="530" />
            </Array>
          </mxGeometry>
        </mxCell>
        <mxCell id="router-to-kafka-async" value="Publish" style="endArrow=classic;html=1;exitX=1;exitY=0.75;exitDx=0;exitDy=0;entryX=0;entryY=0.25;entryDx=0;entryDy=0;strokeWidth=2;strokeColor=#009900;dashed=1;fontSize=10;edgeStyle=orthogonalEdgeStyle;" edge="1" parent="1" source="fraud-router" target="kafka-async">
          <mxGeometry x="-0.2" width="50" height="50" relative="1" as="geometry">
            <mxPoint x="300" y="400" as="sourcePoint" />
            <mxPoint x="350" y="350" as="targetPoint" />
            <mxPoint as="offset" />
            <Array as="points">
              <mxPoint x="260" y="345" />
              <mxPoint x="260" y="620" />
            </Array>
          </mxGeometry>
        </mxCell>

        <mxCell id="storage-layer-label" value="Storage and Analytics" style="text;html=1;strokeColor=none;fillColor=none;align=left;verticalAlign=middle;whiteSpace=wrap;rounded=0;fontSize=14;fontStyle=1;fontColor=#CC6600;" vertex="1" parent="1">
          <mxGeometry x="680" y="230" width="200" height="30" as="geometry" />
        </mxCell>
        
        <mxCell id="kafka-connect" value="Kafka Connect&#xa;&#xa;S3 Sink Connector&#xa;&#xa;Parquet format&#xa;Hourly batches" style="rounded=1;whiteSpace=wrap;html=1;fillColor=#fff2cc;strokeColor=#d6b656;verticalAlign=top;fontSize=11;fontStyle=1" vertex="1" parent="1">
          <mxGeometry x="680" y="310" width="160" height="110" as="geometry" />
        </mxCell>
        
        <mxCell id="kafka-to-connect" value="Stream" style="endArrow=classic;html=1;exitX=1;exitY=0.5;exitDx=0;exitDy=0;entryX=0;entryY=0.25;entryDx=0;entryDy=0;strokeWidth=2;strokeColor=#009900;dashed=1;fontSize=10;" edge="1" parent="1" source="kafka-transactions" target="kafka-connect">
          <mxGeometry x="-0.2" width="50" height="50" relative="1" as="geometry">
            <mxPoint x="600" y="400" as="sourcePoint" />
            <mxPoint x="650" y="350" as="targetPoint" />
            <mxPoint as="offset" />
          </mxGeometry>
        </mxCell>
        <mxCell id="kafka-decline-to-connect" value="Stream" style="endArrow=classic;html=1;exitX=1;exitY=0.5;exitDx=0;exitDy=0;entryX=0;entryY=0.75;entryDx=0;entryDy=0;strokeWidth=2;strokeColor=#009900;dashed=1;fontSize=10;" edge="1" parent="1" source="kafka-declines" target="kafka-connect">
          <mxGeometry x="-0.2" width="50" height="50" relative="1" as="geometry">
            <mxPoint x="600" y="450" as="sourcePoint" />
            <mxPoint x="650" y="400" as="targetPoint" />
            <mxPoint as="offset" />
          </mxGeometry>
        </mxCell>
        
        <mxCell id="s3-storage" value="" style="shape=cylinder3;whiteSpace=wrap;html=1;boundedLbl=1;backgroundOutline=1;size=15;fillColor=#dae8fc;strokeColor=#6c8ebf;" vertex="1" parent="1">
          <mxGeometry x="920" y="290" width="80" height="100" as="geometry" />
        </mxCell>
        <mxCell id="s3-label" value="S3 Bucket&#xa;&#xa;fs-transactions/&#xa;fs-declines/&#xa;&#xa;Parquet files&#xa;Partitioned by&#xa;date/hour" style="text;html=1;strokeColor=none;fillColor=none;align=center;verticalAlign=middle;whiteSpace=wrap;rounded=0;fontSize=10;fontStyle=1" vertex="1" parent="1">
          <mxGeometry x="905" y="400" width="110" height="100" as="geometry" />
        </mxCell>
        
        <mxCell id="connect-to-s3" value="Write" style="endArrow=classic;html=1;exitX=1;exitY=0.5;exitDx=0;exitDy=0;entryX=0;entryY=0.5;entryDx=0;entryDy=0;entryDz=0;strokeWidth=2;strokeColor=#009900;dashed=1;fontSize=10;" edge="1" parent="1" source="kafka-connect" target="s3-storage">
          <mxGeometry x="-0.2" width="50" height="50" relative="1" as="geometry">
            <mxPoint x="900" y="400" as="sourcePoint" />
            <mxPoint x="950" y="350" as="targetPoint" />
            <mxPoint as="offset" />
          </mxGeometry>
        </mxCell>
        
        <mxCell id="cdp-snowflake" value="" style="shape=cylinder3;whiteSpace=wrap;html=1;boundedLbl=1;backgroundOutline=1;size=15;fillColor=#e1d5e7;strokeColor=#9673a6;" vertex="1" parent="1">
          <mxGeometry x="1120" y="290" width="80" height="100" as="geometry" />
        </mxCell>
        <mxCell id="cdp-label" value="CDP/Snowflake&#xa;&#xa;Analytics DB&#xa;&#xa;BI Dashboards&#xa;ML Training&#xa;Reporting" style="text;html=1;strokeColor=none;fillColor=none;align=center;verticalAlign=middle;whiteSpace=wrap;rounded=0;fontSize=10;fontStyle=1" vertex="1" parent="1">
          <mxGeometry x="1105" y="400" width="110" height="100" as="geometry" />
        </mxCell>
        
        <mxCell id="s3-to-cdp" value="Load&#xa;(Daily)" style="endArrow=classic;html=1;exitX=1;exitY=0.5;exitDx=0;exitDy=0;exitDz=0;entryX=0;entryY=0.5;entryDx=0;entryDy=0;entryDz=0;strokeWidth=2;strokeColor=#009900;dashed=1;fontSize=10;" edge="1" parent="1" source="s3-storage" target="cdp-snowflake">
          <mxGeometry x="-0.2" width="50" height="50" relative="1" as="geometry">
            <mxPoint x="1050" y="400" as="sourcePoint" />
            <mxPoint x="1100" y="350" as="targetPoint" />
            <mxPoint as="offset" />
          </mxGeometry>
        </mxCell>

        <mxCell id="issuer-layer-label" value="Issuer Data-Share" style="text;html=1;strokeColor=none;fillColor=none;align=left;verticalAlign=middle;whiteSpace=wrap;rounded=0;fontSize=14;fontStyle=1;fontColor=#CC0000;" vertex="1" parent="1">
          <mxGeometry x="680" y="520" width="200" height="30" as="geometry" />
        </mxCell>
        
        <mxCell id="issuer-data-service" value="Issuer Data&#xa;Service&#xa;(8 pods)&#xa;&#xa;Multi-issuer&#xa;fan-out&#xa;Circuit breakers" style="rounded=1;whiteSpace=wrap;html=1;fillColor=#f8cecc;strokeColor=#b85450;verticalAlign=top;fontSize=11;fontStyle=1" vertex="1" parent="1">
          <mxGeometry x="680" y="570" width="160" height="120" as="geometry" />
        </mxCell>
        
        <mxCell id="kafka-to-issuer" value="Subscribe" style="endArrow=classic;html=1;exitX=1;exitY=0.5;exitDx=0;exitDy=0;entryX=0;entryY=0.25;entryDx=0;entryDy=0;strokeWidth=2;strokeColor=#009900;dashed=1;fontSize=10;" edge="1" parent="1" source="kafka-transactions" target="issuer-data-service">
          <mxGeometry x="-0.2" width="50" height="50" relative="1" as="geometry">
            <mxPoint x="600" y="600" as="sourcePoint" />
            <mxPoint x="650" y="550" as="targetPoint" />
            <mxPoint as="offset" />
            <Array as="points">
              <mxPoint x="620" y="350" />
              <mxPoint x="620" y="600" />
            </Array>
          </mxGeometry>
        </mxCell>
        
        <mxCell id="sftp-capital-one" value="Capital One&#xa;SFTP&#xa;&#xa;CSV files&#xa;Daily delivery" style="rounded=1;whiteSpace=wrap;html=1;fillColor=#ffe6cc;strokeColor=#d79b00;verticalAlign=top;fontSize=10;fontStyle=1" vertex="1" parent="1">
          <mxGeometry x="920" y="550" width="120" height="80" as="geometry" />
        </mxCell>
        
        <mxCell id="sftp-chase" value="Chase&#xa;SFTP&#xa;&#xa;CSV files&#xa;Daily delivery" style="rounded=1;whiteSpace=wrap;html=1;fillColor=#ffe6cc;strokeColor=#d79b00;verticalAlign=top;fontSize=10;fontStyle=1" vertex="1" parent="1">
          <mxGeometry x="920" y="650" width="120" height="80" as="geometry" />
        </mxCell>
        
        <mxCell id="issuer-to-capital" value="SFTP Push" style="endArrow=classic;html=1;exitX=1;exitY=0.33;exitDx=0;exitDy=0;entryX=0;entryY=0.5;entryDx=0;entryDy=0;strokeWidth=2;strokeColor=#009900;dashed=1;fontSize=10;" edge="1" parent="1" source="issuer-data-service" target="sftp-capital-one">
          <mxGeometry x="-0.2" width="50" height="50" relative="1" as="geometry">
            <mxPoint x="870" y="650" as="sourcePoint" />
            <mxPoint x="920" y="600" as="targetPoint" />
            <mxPoint as="offset" />
          </mxGeometry>
        </mxCell>
        <mxCell id="issuer-to-chase" value="SFTP Push" style="endArrow=classic;html=1;exitX=1;exitY=0.67;exitDx=0;exitDy=0;entryX=0;entryY=0.5;entryDx=0;entryDy=0;strokeWidth=2;strokeColor=#009900;dashed=1;fontSize=10;" edge="1" parent="1" source="issuer-data-service" target="sftp-chase">
          <mxGeometry x="-0.2" width="50" height="50" relative="1" as="geometry">
            <mxPoint x="870" y="700" as="sourcePoint" />
            <mxPoint x="920" y="650" as="targetPoint" />
            <mxPoint as="offset" />
          </mxGeometry>
        </mxCell>

        <mxCell id="metrics-box" value="" style="rounded=1;whiteSpace=wrap;html=1;fillColor=#f5f5f5;strokeColor=#666666;dashed=1;" vertex="1" parent="1">
          <mxGeometry x="1080" y="560" width="280" height="160" as="geometry" />
        </mxCell>
        <mxCell id="metrics-title" value="Key Metrics" style="text;html=1;strokeColor=none;fillColor=none;align=left;verticalAlign=middle;whiteSpace=wrap;rounded=0;fontSize=14;fontStyle=1" vertex="1" parent="1">
          <mxGeometry x="1090" y="570" width="150" height="20" as="geometry" />
        </mxCell>
        <mxCell id="metrics-1" value="Kafka throughput: 1,300 TPS" style="text;html=1;strokeColor=none;fillColor=none;align=left;verticalAlign=middle;whiteSpace=wrap;rounded=0;fontSize=11;" vertex="1" parent="1">
          <mxGeometry x="1095" y="595" width="250" height="20" as="geometry" />
        </mxCell>
        <mxCell id="metrics-2" value="S3 latency: ~500ms (batch write)" style="text;html=1;strokeColor=none;fillColor=none;align=left;verticalAlign=middle;whiteSpace=wrap;rounded=0;fontSize=11;" vertex="1" parent="1">
          <mxGeometry x="1095" y="620" width="250" height="20" as="geometry" />
        </mxCell>
        <mxCell id="metrics-3" value="CDP load: Daily at 2 AM UTC" style="text;html=1;strokeColor=none;fillColor=none;align=left;verticalAlign=middle;whiteSpace=wrap;rounded=0;fontSize=11;" vertex="1" parent="1">
          <mxGeometry x="1095" y="645" width="250" height="20" as="geometry" />
        </mxCell>
        <mxCell id="metrics-4" value="Issuer delivery: 99%+ success rate" style="text;html=1;strokeColor=none;fillColor=none;align=left;verticalAlign=middle;whiteSpace=wrap;rounded=0;fontSize=11;" vertex="1" parent="1">
          <mxGeometry x="1095" y="670" width="250" height="20" as="geometry" />
        </mxCell>
        <mxCell id="metrics-5" value="Retention: 7 days (Kafka), 90 days (S3)" style="text;html=1;strokeColor=none;fillColor=none;align=left;verticalAlign=middle;whiteSpace=wrap;rounded=0;fontSize=11;" vertex="1" parent="1">
          <mxGeometry x="1095" y="695" width="250" height="20" as="geometry" />
        </mxCell>

      </root>
    </mxGraphModel>
  </diagram>
</mxfile>
